<svg xmlns="http://www.w3.org/2000/svg" width="66.97" height="79.245" viewBox="0 0 66.97 79.245"><path d="M74.57,38.127a4.9,4.9,0,0,0-9.8,0V58.545a4.9,4.9,0,0,0,9.8,0Zm-57.17,0a4.9,4.9,0,1,0-9.8,0V58.545a4.9,4.9,0,0,0,9.8,0ZM51.8,14.778l3.459-6.245a.674.674,0,0,0-.264-.937.782.782,0,0,0-.336-.1.66.66,0,0,0-.6.36l-3.507,6.318a23.46,23.46,0,0,0-18.929,0L28.138,7.86a.688.688,0,1,0-1.2.673L30.4,14.778c-6.678,3.459-11.17,10.017-11.17,17.559H62.944c0-7.543-4.492-14.1-11.146-17.559ZM31,24.339a1.826,1.826,0,1,1,1.826-1.826A1.825,1.825,0,0,1,31,24.339Zm20.178,0A1.826,1.826,0,1,1,53,22.513,1.825,1.825,0,0,1,51.174,24.339ZM19.226,34.067V65.751a5.269,5.269,0,0,0,5.285,5.285h3.507V81.845a4.9,4.9,0,1,0,9.8,0V71.035h6.534V81.845a4.9,4.9,0,1,0,9.8,0V71.035H57.66a5.269,5.269,0,0,0,5.285-5.285V34.067Z" transform="translate(-7.6 -7.5)" fill="#fff"/></svg>