<svg height="176.893" viewBox="0 0 186.563 176.893" width="186.563" xmlns="http://www.w3.org/2000/svg" xmlns:xlink="http://www.w3.org/1999/xlink"><clipPath id="a"><path clip-rule="evenodd" d="m195.97-86.253-2.233 25.514-2.306 10.327h9.286l-2.306-10.327-2.233-25.514z" transform="translate(-191.431 86.253)"/></clipPath><clipPath id="b"><path d="m-86 270.406h329.005v-712.406h-329.005z" transform="translate(86 442)"/></clipPath><clipPath id="c"><path clip-rule="evenodd" d="m70.038-97.861c-8.074-.01-21.989 8.137-26.139 21.719-.457 1.5 15.3 9.115 16.659 8.292.774-.47 8.405-9.984 8.405-9.984s6.8 2.2 9.333-1.394c4.057-5.761-.654-18.623-8.259-18.633" transform="translate(-43.889 97.861)"/></clipPath><clipPath id="d"><path clip-rule="evenodd" d="m122-61.5c.653 7.223 5.351 34.845 6.627 37.415.845 1.7 19.417 1.023 20.183-.73.852-1.946 1.977-22.738-1.339-28.122-5.397-8.763-26.094-15.454-25.471-8.563" transform="translate(-121.987 64.35)"/></clipPath><clipPath id="e"><path clip-rule="evenodd" d="m141.293-164.862c-31.876-11.6-65.308 1.425-75.609 29.741s-.035 49.589 45.446 63.16c14.89 4.443 26.262 6.868 35.152 7.309-.276.372-.538.742-.763 1.107-3.314 5.384-2.189 26.176-1.338 28.122.767 1.752 19.34 2.432 20.183.73 1.146-2.307 5.436-28.528 6.764-39.053a37.473 37.473 0 0 0 4.464-7.191c17.028-34.927-2.424-72.329-34.3-83.925" transform="translate(-62.018 169.089)"/></clipPath><clipPath id="f"><path clip-rule="evenodd" d="m195.159-50.171-.72 4.21h.818z" transform="translate(-194.439 50.171)"/></clipPath><clipPath id="g"><path clip-rule="evenodd" d="m198.074-53.557v7.18h.818z" transform="translate(-198.074 53.557)"/></clipPath><clipPath id="h"><path clip-rule="evenodd" d="m65.683-135.121c-10.3 28.316-.036 49.589 45.445 63.16 41.219 12.3 55.6 9.216 64.464-8.976 17.029-34.927-2.423-72.329-34.3-83.924a68.868 68.868 0 0 0 -23.542-4.228c-23.443 0-44.312 12.65-52.067 33.968" transform="translate(-62.018 169.089)"/></clipPath><clipPath id="i"><path d="m-.103.343h79v86h-79z"/></clipPath><clipPath id="j"><path clip-rule="evenodd" d="m103.248-162.318a38.962 38.962 0 0 0 29.313 46.656c20.979 4.789 39.49-9.076 41.427-30.506 2.2-24.286-7.6-41.7-24.084-45.464a38.962 38.962 0 0 0 -46.656 29.314" transform="translate(-102.262 192.618)"/></clipPath><clipPath id="k"><path d="m57-59.454h128.093v-110.546h-128.093z" transform="translate(-57 170)"/></clipPath><clipPath id="l"><path d="m-.123-.449h68v74h-68z"/></clipPath><clipPath id="m"><path clip-rule="evenodd" d="m65.128-144.764a34.833 34.833 0 0 1 -32.035 37.422c-19.18 1.487-33.735-13.2-32.64-32.406 1.239-21.766 12.181-35.882 27.254-37.051a34.832 34.832 0 0 1 37.421 32.035" transform="translate(-.395 176.905)"/></clipPath><clipPath id="n"><path d="m-.292.467h46v35h-46z"/></clipPath><clipPath id="o"><path clip-rule="evenodd" d="m103.1-88.986a32.562 32.562 0 0 0 -30.4 21.186c-.671 1.779 15.125 12.219 16.773 11.251.942-.554 10.487-8.579 10.487-8.579s7.669 2.68 10.947-1.587c5.248-6.831 1.009-22.194-7.8-22.266" transform="translate(-72.677 88.986)"/></clipPath><clipPath id="p"><path d="m-.32.098h103v110h-103z"/></clipPath><clipPath id="q"><path clip-rule="evenodd" d="m124.4-138.007c8.322-22.818 2.5-54.024-32.331-57.328-29.069-2.759-52.869 22.923-52.869 52.121 0 25.51 9.75 34.063-6.676 38.927-2.017.6.945 15.326 2.934 15.326 8.271 0 24.6-4.379 36.257-14.767 9.068-8.078 41.248-2.919 52.684-34.28" transform="translate(-31.848 195.539)"/></clipPath><clipPath id="r"><path clip-rule="evenodd" d="m64.733-149.855a34.832 34.832 0 0 1 -32.033 37.421c-19.18 1.487-33.735-13.2-32.64-32.405 1.24-21.761 12.18-35.882 27.252-37.051a34.832 34.832 0 0 1 37.421 32.035" transform="translate(0 181.996)"/></clipPath><clipPath id="s"><path clip-rule="evenodd" d="m27.312-181.89c-15.072 1.169-26.012 15.29-27.255 37.051-.037.667-.057 1.33-.057 1.985v.072c.018 18.182 14.209 31.782 32.7 30.348a34.833 34.833 0 0 0 32.035-37.421 34.833 34.833 0 0 0 -34.692-32.145q-1.355 0-2.731.106" transform="translate(0 181.996)"/></clipPath><clipPath id="t"><path d="m-.075-.393h96v118h-96z"/></clipPath><clipPath id="u"><path clip-rule="evenodd" d="m118.886-143.426c8.322-22.818 6.782-59-28.174-57.532-29.082 1.219-55.788 19.768-57.025 52.326-1.087 28.515 15.265 59.152 16.967 60.854 1.487 1.488 5.456 2 6.862.6 1.661-1.661 1.049-14.325 8.686-21.962 8.587-8.588 41.247-2.92 52.684-34.281" transform="translate(-33.635 201)"/></clipPath><clipPath id="v"><path d="m0-110.935h66.678v-71.065h-66.678z" transform="translate(0 182)"/></clipPath><clipPath id="w"><path clip-rule="evenodd" d="m142.057-196.88a38.836 38.836 0 0 0 -29.722 5.208c-5.446-4.167-12.673-7.037-21.97-7.92-29.065-2.757-52.865 22.924-52.865 52.123 0 25.51 9.751 34.062-6.675 38.927-2.017.6.945 15.325 2.934 15.326 8.27 0 24.6-4.379 36.257-14.766 7.031-6.263 27.953-4.573 42.33-18.113a38.881 38.881 0 0 0 12.371 5.186c20.979 4.789 39.49-9.076 41.427-30.506 2.2-24.286-7.6-41.7-24.083-45.464" transform="translate(-30.146 199.795)"/></clipPath><clipPath id="x"><path clip-rule="evenodd" d="m94.932-130.894a3.733 3.733 0 0 1 -3.732 3.734 3.734 3.734 0 0 1 -3.733-3.733 3.733 3.733 0 0 1 3.733-3.733 3.733 3.733 0 0 1 3.733 3.733" transform="translate(-87.466 134.627)"/></clipPath><clipPath id="y"><path clip-rule="evenodd" d="m62.639-107.717a1.12 1.12 0 0 1 -.414-.079 34.251 34.251 0 0 0 -7.77-2.077 34.369 34.369 0 0 0 -8.041-.194 1.115 1.115 0 0 1 -1.219-1.011 1.12 1.12 0 0 1 1.01-1.219 36.313 36.313 0 0 1 8.567.208 36.513 36.513 0 0 1 8.279 2.212 1.12 1.12 0 0 1 .627 1.454 1.119 1.119 0 0 1 -1.041.706" transform="translate(-45.191 112.458)"/></clipPath><clipPath id="z"><path clip-rule="evenodd" d="m59.091-100.239a1.129 1.129 0 0 1 -.328-.049 33.643 33.643 0 0 0 -5.113-1.159 32.815 32.815 0 0 0 -5.233-.328h-.017a1.121 1.121 0 0 1 -1.12-1.107 1.122 1.122 0 0 1 1.107-1.133 35.609 35.609 0 0 1 5.578.351 35.918 35.918 0 0 1 5.449 1.233 1.12 1.12 0 0 1 .744 1.4 1.121 1.121 0 0 1 -1.071.793" transform="translate(-47.284 104.018)"/></clipPath><clipPath id="A"><path clip-rule="evenodd" d="m94.593-42.108a31.839 31.839 0 0 1 -31.84 31.84 31.839 31.839 0 0 1 -31.838-31.84 31.839 31.839 0 0 1 31.838-31.839 31.839 31.839 0 0 1 31.84 31.839" transform="translate(-30.915 73.947)"/></clipPath><clipPath id="B"><path clip-rule="evenodd" d="m100.192-91.576c-11.445-2.022-26.869 7.7-32.966 23.853-.672 1.779 15.124 12.223 16.774 11.252.942-.554 13.048-11.251 13.048-11.251s7.669 2.68 10.947-1.587c5.248-6.831.874-20.733-7.8-22.266" transform="translate(-67.205 91.84)"/></clipPath><ellipse cx="110.562" cy="168.097" fill="#f0f0f0" rx="76" ry="8.5"/><g clip-path="url(#a)" transform="translate(169.513 102.418)"><g clip-path="url(#b)" transform="translate(-243.403 -312.114)"><path d="m186.431-91.253h18.06v44.615h-18.06z" fill="#aaedee" transform="translate(52.586 398.98)"/></g></g><g clip-path="url(#c)" transform="translate(40.068 92.234)"><g clip-path="url(#b)" transform="translate(-113.958 -301.929)"><path d="m38.889-102.861h44.672v38.847h-44.672z" fill="#71e1e6" transform="translate(70.682 400.404)"/></g></g><g clip-path="url(#d)" transform="translate(108.587 121.634)"><g clip-path="url(#b)" transform="translate(-182.477 -331.33)"><path d="m116.987-69.35h36.492v50.021h-36.492z" fill="#71e1e6" transform="translate(61.103 396.294)"/></g></g><g clip-path="url(#e)" transform="translate(55.973 29.742)"><g clip-path="url(#b)" transform="translate(-129.863 -239.438)"><path d="m57.018-174.089h128.657v144.153h-128.657z" fill="#aaedee" transform="translate(68.459 409.14)"/></g></g><g clip-path="url(#f)" transform="translate(172.152 134.074)"><g clip-path="url(#b)" transform="translate(-246.042 -343.77)"><path d="m189.439-55.171h9.592v12.983h-9.592z" fill="#71e1e6" transform="translate(52.217 394.554)"/></g></g><g clip-path="url(#g)" transform="translate(175.342 131.103)"><g clip-path="url(#b)" transform="translate(-249.232 -340.799)"><path d="m193.074-58.557h9.592v15.957h-9.592z" fill="#71e1e6" transform="translate(51.771 394.97)"/></g></g><g clip-path="url(#h)" transform="translate(55.973 29.742)"><g clip-path="url(#b)" transform="translate(-129.863 -239.438)"><g clip-path="url(#i)" transform="translate(160.555 214.95)"><g clip-path="url(#j)" transform="translate(4.617 3.845)"><g clip-path="url(#k)" transform="translate(-39.711 19.843)"><path d="m97.262-197.618h80.805v86.676h-80.805z" fill="#71e1e6" transform="translate(-61.938 173.387)"/></g></g></g></g></g><g clip-path="url(#h)" transform="translate(55.973 29.742)"><g clip-path="url(#b)" transform="translate(-129.863 -239.438)"><g clip-path="url(#l)" transform="translate(74.575 230.742)"><g clip-path="url(#m)" transform="translate(1.224 1.838)"><g clip-path="url(#k)" transform="translate(49.662 6.058)"><path d="m-4.6-181.905h73.608v78.44h-73.608z" fill="#8fb1bb" transform="translate(-49.444 171.46)"/></g></g></g></g></g><g clip-path="url(#h)" transform="translate(55.973 29.742)"><g clip-path="url(#b)" transform="translate(-129.863 -239.438)"><g clip-path="url(#n)" transform="translate(137.744 308.826)"><g clip-path="url(#o)" transform="translate(1.471 .889)"><g clip-path="url(#k)" transform="translate(-13.754 -71.077)"><path d="m67.677-93.986h49.3v41.27h-49.3z" fill="#71e1e6" transform="translate(-58.31 160.677)"/></g></g></g></g></g><g clip-path="url(#h)" transform="translate(55.973 29.742)"><g clip-path="url(#b)" transform="translate(-129.863 -239.438)"><g clip-path="url(#p)" transform="translate(101.772 213.195)"><g clip-path="url(#q)" transform="translate(1.622 3.037)"><g clip-path="url(#k)" transform="translate(22.067 22.406)"><path d="m26.848-200.539h104.685v115.352h-104.685z" fill="#71e1e6" transform="translate(-53.302 173.746)"/></g></g></g></g></g><g clip-path="url(#r)" transform="matrix(.99862953 .05233596 -.05233596 .99862953 3.646 14.211)"><g clip-path="url(#b)" transform="translate(-75.452 -228.114)"><path d="m-5-187h73.613v78.439h-73.613z" fill="#aaedee" transform="translate(76.065 410.723)"/></g></g><g clip-path="url(#s)" transform="translate(1.562 18.418)"><g clip-path="url(#b)" transform="translate(-75.452 -228.114)"><g clip-path="url(#t)" transform="translate(103.527 209.686)"><g clip-path="url(#u)" transform="translate(1.434 1.754)"><g clip-path="url(#v)" transform="translate(-29.509 16.67)"><path d="m28.635-206h98.219v123.417h-98.219z" fill="#71e1e6" transform="translate(-3.512 184.944)"/></g></g></g></g></g><g clip-path="url(#w)" transform="matrix(.99862953 .05233596 -.05233596 .99862953 30.875 0)"><g clip-path="url(#b)" transform="translate(-101.9 -212.498)"><path d="m25.146-204.8h145.073v115.357h-145.073z" fill="#aaedee" transform="translate(72.368 412.906)"/></g></g><g clip-path="url(#x)" transform="translate(78.3 59.977)"><g clip-path="url(#b)" transform="translate(-152.19 -269.673)"><path d="m82.466-139.627h16.24v16.24h-16.24z" transform="translate(65.337 404.913)"/></g></g><g clip-path="url(#y)" transform="translate(41.21 79.427)"><g clip-path="url(#b)" transform="translate(-115.1 -289.123)"><path d="m40.191-117.458h27.341v13.514h-27.341z" fill="#71e1e6" transform="translate(70.522 402.194)"/></g></g><g clip-path="url(#z)" transform="translate(43.047 86.832)"><g clip-path="url(#b)" transform="translate(-116.936 -296.528)"><path d="m42.284-109.018h21.7v12.552h-21.7z" fill="#71e1e6" transform="translate(70.266 401.159)"/></g></g><g clip-path="url(#A)" transform="translate(28.685 113.215)"><g clip-path="url(#b)" transform="translate(-102.575 -322.911)"><path d="m25.915-78.947h72.452v72.453h-72.452z" fill="#ff8b62" transform="translate(72.273 397.471)"/></g></g><g clip-path="url(#B)" transform="translate(60.524 97.516)"><g clip-path="url(#b)" transform="translate(-134.414 -307.212)"><path d="m62.205-96.84h51.832v44.206h-51.832z" fill="#aaedee" transform="translate(67.822 399.665)"/></g></g></svg>