<svg xmlns="http://www.w3.org/2000/svg" xmlns:xlink="http://www.w3.org/1999/xlink" width="194.801" height="174.092" viewBox="0 0 194.801 174.092"><defs><clipPath id="a"><path d="M70.038-97.861c-8.074-.01-21.989,8.137-26.139,21.719-.457,1.5,15.3,9.115,16.659,8.292.774-.47,8.405-9.984,8.405-9.984s6.8,2.2,9.333-1.394c4.057-5.761-.654-18.623-8.259-18.633" transform="translate(62.034 115.617) rotate(-56)" fill="none" clip-rule="evenodd"/></clipPath><clipPath id="b"><path d="M-86,270.406H243.005V-442H-86Z" transform="translate(86 442)" fill="none"/></clipPath><clipPath id="c"><path d="M122-61.5c.653,7.223,5.351,34.845,6.627,37.415.845,1.7,19.417,1.023,20.183-.73.852-1.946,1.977-22.738-1.339-28.122C142.074-61.7,121.377-68.391,122-61.5" transform="translate(-121.987 64.35)" fill="none" clip-rule="evenodd"/></clipPath><clipPath id="e"><path d="M141.293-164.862c-31.876-11.6-65.308,1.425-75.609,29.741s-.035,49.589,45.446,63.16c14.89,4.443,26.262,6.868,35.152,7.309-.276.372-.538.742-.763,1.107-3.314,5.384,7.811,26.176,8.662,28.122.767,1.752,19.34,2.432,20.183.73C175.51-37,169.8-63.221,171.128-73.746a37.473,37.473,0,0,0,4.464-7.191c17.028-34.927-2.424-72.329-34.3-83.925" transform="translate(-62.018 169.089)" fill="none" clip-rule="evenodd"/></clipPath><clipPath id="g"><path d="M195.97-86.253l-2.233,25.514-2.306,10.327h9.286l-2.306-10.327-2.233-25.514Z" transform="translate(-191.431 86.253)" fill="none" clip-rule="evenodd"/></clipPath><clipPath id="i"><path d="M195.159-50.171l-.72,4.21h.818Z" transform="translate(-194.439 50.171)" fill="none" clip-rule="evenodd"/></clipPath><clipPath id="k"><path d="M198.074-53.557v7.18h.818Z" transform="translate(-198.074 53.557)" fill="none" clip-rule="evenodd"/></clipPath><clipPath id="m"><path d="M65.683-135.121c-10.3,28.316-.036,49.589,45.445,63.16,41.219,12.3,55.6,9.216,64.464-8.976,17.029-34.927-2.423-72.329-34.3-83.924a68.868,68.868,0,0,0-23.542-4.228c-23.443,0-44.312,12.65-52.067,33.968" transform="translate(-62.018 169.089)" fill="none" clip-rule="evenodd"/></clipPath><clipPath id="o"><rect width="79" height="86" transform="translate(-0.103 0.343)" fill="none"/></clipPath><clipPath id="p"><path d="M103.248-162.318a38.962,38.962,0,0,0,29.313,46.656c20.979,4.789,39.49-9.076,41.427-30.506,2.2-24.286-7.6-41.7-24.084-45.464a38.962,38.962,0,0,0-46.656,29.314" transform="translate(-102.262 192.618)" fill="none" clip-rule="evenodd"/></clipPath><clipPath id="q"><path d="M57-59.454H185.093V-170H57Z" transform="translate(-57 170)" fill="none"/></clipPath><clipPath id="t"><rect width="68" height="74" transform="translate(-0.123 -0.449)" fill="none"/></clipPath><clipPath id="u"><path d="M65.128-144.764a34.833,34.833,0,0,1-32.035,37.422c-19.18,1.487-33.735-13.2-32.64-32.406,1.239-21.766,12.181-35.882,27.254-37.051a34.832,34.832,0,0,1,37.421,32.035" transform="translate(-0.395 176.905)" fill="none" clip-rule="evenodd"/></clipPath><clipPath id="y"><rect width="46" height="35" transform="translate(-0.292 0.467)" fill="none"/></clipPath><clipPath id="z"><path d="M103.1-88.986A32.562,32.562,0,0,0,72.7-67.8c-.671,1.779,15.125,12.219,16.773,11.251.942-.554,10.487-8.579,10.487-8.579s7.669,2.68,10.947-1.587c5.248-6.831,1.009-22.194-7.8-22.266" transform="translate(-72.677 88.986)" fill="none" clip-rule="evenodd"/></clipPath><clipPath id="ad"><rect width="103" height="110" transform="translate(-0.32 0.098)" fill="none"/></clipPath><clipPath id="ae"><path d="M124.4-138.007c8.322-22.818,2.5-54.024-32.331-57.328C63-198.094,39.2-172.412,39.2-143.214c0,25.51,9.75,34.063-6.676,38.927-2.017.6.945,15.326,2.934,15.326,8.271,0,24.6-4.379,36.257-14.767,9.068-8.078,41.248-2.919,52.684-34.28" transform="translate(-31.848 195.539)" fill="none" clip-rule="evenodd"/></clipPath><clipPath id="ag"><path d="M64.733-149.855A34.832,34.832,0,0,1,32.7-112.434c-19.18,1.487-33.735-13.2-32.64-32.405C1.3-166.6,12.24-180.721,27.312-181.89a34.832,34.832,0,0,1,37.421,32.035" transform="translate(0 181.996)" fill="none" clip-rule="evenodd"/></clipPath><clipPath id="ai"><path d="M27.312-181.89C12.24-180.721,1.3-166.6.057-144.839c-.037.667-.057,1.33-.057,1.985v.072C.018-124.6,14.209-111,32.7-112.434a34.833,34.833,0,0,0,32.035-37.421A34.833,34.833,0,0,0,30.043-182q-1.355,0-2.731.106" transform="translate(0 181.996)" fill="none" clip-rule="evenodd"/></clipPath><clipPath id="ak"><rect width="96" height="118" transform="translate(-0.075 -0.393)" fill="none"/></clipPath><clipPath id="al"><path d="M118.886-143.426c8.322-22.818,6.782-59-28.174-57.532-29.082,1.219-55.788,19.768-57.025,52.326C32.6-120.117,48.952-89.48,50.654-87.778c1.487,1.488,5.456,2,6.862.6,1.661-1.661,1.049-14.325,8.686-21.962,8.587-8.588,41.247-2.92,52.684-34.281" transform="translate(-33.635 201)" fill="none" clip-rule="evenodd"/></clipPath><clipPath id="am"><path d="M0-110.935H66.678V-182H0Z" transform="translate(0 182)" fill="none"/></clipPath><clipPath id="an"><path d="M142.057-196.88a38.836,38.836,0,0,0-29.722,5.208c-5.446-4.167-12.673-7.037-21.97-7.92C61.3-202.349,37.5-176.668,37.5-147.469c0,25.51,9.751,34.062-6.675,38.927-2.017.6.945,15.325,2.934,15.326,8.27,0,24.6-4.379,36.257-14.766,7.031-6.263,27.953-4.573,42.33-18.113a38.881,38.881,0,0,0,12.371,5.186c20.979,4.789,39.49-9.076,41.427-30.506,2.2-24.286-7.6-41.7-24.083-45.464" transform="translate(-30.146 199.795)" fill="none" clip-rule="evenodd"/></clipPath><clipPath id="ap"><path d="M94.932-130.894A3.733,3.733,0,0,1,91.2-127.16a3.734,3.734,0,0,1-3.733-3.733,3.733,3.733,0,0,1,3.733-3.733,3.733,3.733,0,0,1,3.733,3.733" transform="translate(-87.466 134.627)" fill="none" clip-rule="evenodd"/></clipPath><clipPath id="ar"><path d="M62.639-107.717a1.12,1.12,0,0,1-.414-.079,34.251,34.251,0,0,0-7.77-2.077,34.369,34.369,0,0,0-8.041-.194,1.115,1.115,0,0,1-1.219-1.011,1.12,1.12,0,0,1,1.01-1.219,36.313,36.313,0,0,1,8.567.208,36.513,36.513,0,0,1,8.279,2.212,1.12,1.12,0,0,1,.627,1.454,1.119,1.119,0,0,1-1.041.706" transform="translate(-45.191 112.458)" fill="none" clip-rule="evenodd"/></clipPath><clipPath id="at"><path d="M59.091-100.239a1.129,1.129,0,0,1-.328-.049,33.643,33.643,0,0,0-5.113-1.159,32.815,32.815,0,0,0-5.233-.328H48.4a1.121,1.121,0,0,1-1.12-1.107,1.122,1.122,0,0,1,1.107-1.133,35.609,35.609,0,0,1,5.578.351,35.918,35.918,0,0,1,5.449,1.233,1.12,1.12,0,0,1,.744,1.4,1.121,1.121,0,0,1-1.071.793" transform="translate(-47.284 104.018)" fill="none" clip-rule="evenodd"/></clipPath><clipPath id="av"><path d="M94.593-42.108a31.839,31.839,0,0,1-31.84,31.84,31.839,31.839,0,0,1-31.838-31.84A31.839,31.839,0,0,1,62.753-73.947a31.839,31.839,0,0,1,31.84,31.839" transform="translate(-30.915 73.947)" fill="none" clip-rule="evenodd"/></clipPath><clipPath id="ax"><path d="M100.192-91.576c-11.445-2.022-26.869,7.7-32.966,23.853C66.554-65.944,82.35-55.5,84-56.471c.942-.554,13.048-11.251,13.048-11.251s7.669,2.68,10.947-1.587c5.248-6.831.874-20.733-7.8-22.266" transform="translate(5.185 132.176) rotate(-42)" fill="none" clip-rule="evenodd"/></clipPath></defs><g transform="translate(-86 -242.205)"><ellipse cx="76" cy="8.5" rx="76" ry="8.5" transform="translate(119 399)" fill="#f0f0f0"/><g transform="translate(86 242.205)"><g transform="translate(38.506 89.432)" clip-path="url(#a)"><g transform="translate(-113.958 -301.929)" clip-path="url(#b)"><path d="M38.889-102.861H83.561v38.847H38.889Z" transform="translate(70.682 400.404)" fill="#71e1e6"/></g></g><g transform="translate(113.76 111.142) rotate(22)" clip-path="url(#c)"><g transform="translate(-182.477 -331.33)" clip-path="url(#b)"><path d="M116.987-69.35h36.492v50.021H116.987Z" transform="translate(61.103 396.294)" fill="#71e1e6"/></g></g><g transform="translate(54.411 26.94)" clip-path="url(#e)"><g transform="translate(-129.863 -239.438)" clip-path="url(#b)"><path d="M57.018-174.089H185.675V-29.936H57.018Z" transform="translate(68.459 409.14)" fill="#aaedee"/></g></g><g transform="translate(4 -1)"><g transform="translate(164.381 103.567) rotate(-31)" clip-path="url(#g)"><g transform="translate(-243.403 -312.114)" clip-path="url(#b)"><path d="M186.431-91.253h18.06v44.615h-18.06Z" transform="translate(52.586 398.98)" fill="#aaedee"/></g></g><g transform="translate(182.947 129.343) rotate(-31)" clip-path="url(#i)"><g transform="translate(-246.042 -343.77)" clip-path="url(#b)"><path d="M189.439-55.171h9.592v12.983h-9.592Z" transform="translate(52.217 394.554)" fill="#71e1e6"/></g></g><g transform="translate(184.151 125.154) rotate(-31)" clip-path="url(#k)"><g transform="translate(-249.232 -340.799)" clip-path="url(#b)"><path d="M193.074-58.557h9.592V-42.6h-9.592Z" transform="translate(51.771 394.97)" fill="#71e1e6"/></g></g></g><g transform="translate(54.411 26.94)" clip-path="url(#m)"><g transform="translate(-129.863 -239.438)" clip-path="url(#b)"><g transform="translate(160.555 214.95)" clip-path="url(#o)"><g transform="translate(4.617 3.845)" clip-path="url(#p)"><g transform="translate(-39.711 19.843)" clip-path="url(#q)"><path d="M97.262-197.618h80.805v86.676H97.262Z" transform="translate(-61.938 173.387)" fill="#71e1e6"/></g></g></g></g></g><g transform="translate(54.411 26.94)" clip-path="url(#m)"><g transform="translate(-129.863 -239.438)" clip-path="url(#b)"><g transform="translate(74.575 230.742)" clip-path="url(#t)"><g transform="translate(1.224 1.838)" clip-path="url(#u)"><g transform="translate(49.662 6.058)" clip-path="url(#q)"><path d="M-4.6-181.905H69.008v78.44H-4.6Z" transform="translate(-49.444 171.46)" fill="#8fb1bb"/></g></g></g></g></g><g transform="translate(54.411 26.94)" clip-path="url(#m)"><g transform="translate(-129.863 -239.438)" clip-path="url(#b)"><g transform="translate(137.744 308.826)" clip-path="url(#y)"><g transform="translate(2.177 27.769) rotate(-49)" clip-path="url(#z)"><g transform="translate(-13.754 -71.077)" clip-path="url(#q)"><path d="M67.677-93.986h49.3v41.27h-49.3Z" transform="translate(-58.31 160.677)" fill="#71e1e6"/></g></g></g></g></g><g transform="translate(54.411 26.94)" clip-path="url(#m)"><g transform="translate(-129.863 -239.438)" clip-path="url(#b)"><g transform="translate(101.772 213.195)" clip-path="url(#ad)"><g transform="translate(1.622 3.037)" clip-path="url(#ae)"><g transform="translate(22.067 22.406)" clip-path="url(#q)"><path d="M26.848-200.539H131.533V-85.187H26.848Z" transform="translate(-53.302 173.746)" fill="#71e1e6"/></g></g></g></g></g><g transform="translate(0 15.616)" clip-path="url(#ag)"><g transform="translate(-75.452 -228.114)" clip-path="url(#b)"><path d="M-5-187H68.613v78.439H-5Z" transform="translate(76.065 410.723)" fill="#aaedee"/></g></g><g transform="translate(0 15.616)" clip-path="url(#ai)"><g transform="translate(-75.452 -228.114)" clip-path="url(#b)"><g transform="translate(103.527 209.686)" clip-path="url(#ak)"><g transform="translate(1.434 1.754)" clip-path="url(#al)"><g transform="translate(-29.509 16.67)" clip-path="url(#am)"><path d="M28.635-206h98.219V-82.583H28.635Z" transform="translate(-3.512 184.944)" fill="#71e1e6"/></g></g></g></g></g><g transform="translate(26.449 0)" clip-path="url(#an)"><g transform="translate(-101.9 -212.498)" clip-path="url(#b)"><path d="M25.146-204.8H170.219V-89.443H25.146Z" transform="translate(72.368 412.906)" fill="#aaedee"/></g></g><g transform="translate(76.738 57.175)" clip-path="url(#ap)"><g transform="translate(-152.19 -269.673)" clip-path="url(#b)"><path d="M82.466-139.627h16.24v16.24H82.466Z" transform="translate(65.337 404.913)"/></g></g><g transform="translate(39.648 76.625)" clip-path="url(#ar)"><g transform="translate(-115.1 -289.123)" clip-path="url(#b)"><path d="M40.191-117.458H67.532v13.514H40.191Z" transform="translate(70.522 402.194)" fill="#71e1e6"/></g></g><g transform="translate(41.485 84.03)" clip-path="url(#at)"><g transform="translate(-116.936 -296.528)" clip-path="url(#b)"><path d="M42.284-109.018h21.7v12.552h-21.7Z" transform="translate(70.266 401.159)" fill="#71e1e6"/></g></g><g transform="translate(27.123 110.413)" clip-path="url(#av)"><g transform="translate(-102.575 -322.911)" clip-path="url(#b)"><path d="M25.915-78.947H98.367V-6.494H25.915Z" transform="translate(72.273 397.471)" fill="#ff8b62"/></g></g><g transform="translate(63.706 105.883) rotate(-8)" clip-path="url(#ax)"><g transform="translate(-134.414 -307.212)" clip-path="url(#b)"><path d="M62.205-96.84h51.832v44.206H62.205Z" transform="translate(67.822 399.665)" fill="#aaedee"/></g></g></g></g></svg>