<svg height="50" viewBox="0 0 180.276 50" width="180.276" xmlns="http://www.w3.org/2000/svg" xmlns:xlink="http://www.w3.org/1999/xlink"><clipPath id="a"><path clip-rule="evenodd" d="m174.021-41.88 4.8 3.67a63.592 63.592 0 0 0 -5.129 4.587c-2.127 1.96-5.046 4.3-9.925 8.007-1.293.959-1.585 1.293-1.585 1.751 0 .626.083.709 3.753 3.461a140.16 140.16 0 0 1 13.132 10.884 10.4 10.4 0 0 0 1.209 1.043l-4.3 4.337a40.287 40.287 0 0 0 -5.421-5.713 132.271 132.271 0 0 0 -10.755-8.883c-2.752-2.127-3.5-3.253-3.5-5.171a4.872 4.872 0 0 1 1.376-3.378c.542-.584.584-.626 3.67-3a93.474 93.474 0 0 0 9.633-8.132 20.669 20.669 0 0 0 3.042-3.463zm-53.9 7.6.083.083c3.795-1.5 5.63-1.918 8.757-1.918 7.131 0 11.718 3.67 11.718 9.383a10.191 10.191 0 0 1 -5.671 9.216 20.632 20.632 0 0 1 -10.092 2.377c-3.5 0-6.422-.667-8.09-1.918a5.952 5.952 0 0 1 -2.5-4.8c0-3.461 3-5.963 7.173-5.963a8.975 8.975 0 0 1 7.214 3.42 11.215 11.215 0 0 1 1.918 3.753c3.461-1.293 4.962-3.086 4.962-6.047 0-3.253-3.211-5.379-8.257-5.379a25.7 25.7 0 0 0 -17.181 7.006l-2.836-4.5a37.507 37.507 0 0 0 5.88-3.92 139.245 139.245 0 0 0 12.469-10.842l.751-.751-.042-.042c-1.585.208-4.254.375-11.8.709a14.065 14.065 0 0 0 -2 .209l-.208-5a37.715 37.715 0 0 0 4.921.25c3.545 0 8.632-.209 12.677-.5a6.144 6.144 0 0 0 2.582-.546l2.585 3.67a8.939 8.939 0 0 0 -2.168 1.71c-2.085 1.918-5.129 4.629-6.547 5.838-.751.626-3.753 2.877-4.587 3.42a16.377 16.377 0 0 1 -1.71 1.083zm6 14.846c-.751-2.877-2.335-4.379-4.671-4.379-1.5 0-2.46.751-2.46 1.918 0 1.668 1.877 2.627 4.963 2.627a11.287 11.287 0 0 0 2.174-.165zm-72.979-8.506-.083-4.921a10.773 10.773 0 0 0 2.085.125c4.879 0 10.092-.584 11.843-1.293l2.627 4.462a19.932 19.932 0 0 0 -5.129 4.545c-3.545 4.171-5.385 8.383-5.385 12.345 0 4.5 2.877 7.548 7.131 7.548a8.117 8.117 0 0 0 7.636-5.171 22.253 22.253 0 0 0 1.543-9.091 34.491 34.491 0 0 0 -2.252-12.677l5-1.46c1.842 6.005 6.593 12.594 11.142 15.388l-2.585 4.962a2.11 2.11 0 0 1 -.334-.375 8.136 8.136 0 0 1 -.626-.542 32.752 32.752 0 0 1 -6.672-8.549 26.255 26.255 0 0 1 .876 7.3c-.003 8.964-5.675 15.344-13.559 15.344a13.469 13.469 0 0 1 -7.17-1.96 12.581 12.581 0 0 1 -5.171-10.634 20.578 20.578 0 0 1 2.877-10.05 26.55 26.55 0 0 1 4.212-5.379 7.422 7.422 0 0 0 .709-.626 2.291 2.291 0 0 1 .459-.459c-.334.083-.542.083-.626.125l-.542.125a42.711 42.711 0 0 1 -6.964.792c-.542.043-.584.084-1.042.126zm34.465-8.173a5.02 5.02 0 0 1 5.026 4.983 5.029 5.029 0 0 1 -5.026 5.026 5.02 5.02 0 0 1 -4.983-5.026 5.011 5.011 0 0 1 4.983-4.983zm0 2.5a2.478 2.478 0 0 0 -2.483 2.483 2.511 2.511 0 0 0 2.483 2.521 2.519 2.519 0 0 0 2.521-2.521 2.487 2.487 0 0 0 -2.519-2.481zm-76.934-1.1.083-4.8a30.053 30.053 0 0 0 7.548.667c1.46 0 2.377 0 3.837-.083 0-2.46-.042-4.545-.042-6.255a11.666 11.666 0 0 0 -.125-2l5.213-.125a40.8 40.8 0 0 0 -.292 6.13v1.918a41.924 41.924 0 0 0 5.63-1c.25-.083.25-.083.917-.334l.334-.083.167 4.712a7.206 7.206 0 0 0 -1.209.208c-1.418.292-3.586.667-5.8.917v.917c0 2.335 0 2.419.417 9.425a33.248 33.248 0 0 1 6.549 3.799 7.934 7.934 0 0 0 1.168.709l-2 5.046a15.623 15.623 0 0 0 -3.128-2.669c-1.418-.917-2.377-1.543-2.627-1.71v.584a7.3 7.3 0 0 1 -.334 2.335c-.959 2.46-3.878 3.92-7.923 3.92-5.463 0-8.8-2.585-8.8-6.839 0-4.045 3.545-6.881 8.59-6.881a9.912 9.912 0 0 1 3.711.584c-.125-1.043-.167-3.086-.334-8.882-1.668.042-2.669.083-3.753.083-1.543 0-3.211-.042-5.171-.209-.584 0-1.043-.042-1.251-.042a6.209 6.209 0 0 0 -.709-.042 1.915 1.915 0 0 0 -.417-.042.734.734 0 0 0 -.246.042zm11.971 13.344a8.729 8.729 0 0 0 -3.42-.667c-2.669 0-4.337 1.043-4.337 2.752 0 1.543 1.5 2.585 3.837 2.585a4.1 4.1 0 0 0 3.376-1.292 3.5 3.5 0 0 0 .542-2.252zm-16.305 8.882-5 .292a15.219 15.219 0 0 0 -.209-1.626 79.082 79.082 0 0 1 -1.13-13.261 74.538 74.538 0 0 1 .792-11.051c.208-1.251.208-1.251 1.126-5.967a22.385 22.385 0 0 0 .459-3.086v-.167l5.63.584c-1.707 3.632-3.295 13.682-3.336 20.938-.042 1.5-.042 1.5-.042 2.168v.663a7.1 7.1 0 0 1 -.042.876h.042c.209-.459.209-.459.5-1.209.083-.292.292-.751.5-1.418.375-.876.375-.876.792-1.877a7.946 7.946 0 0 0 .5-1.293l3.461 1.543c-2.46 4.837-4.128 10.008-4.128 12.761a8.17 8.17 0 0 0 .085 1.13z"/></clipPath><clipPath id="b"><path d="m-97 622h375v-812h-375z"/></clipPath><g clip-path="url(#a)" transform="translate(0 50)"><g clip-path="url(#b)"><path d="m-5-55h190.276v60h-190.276z" fill="#ff8b62"/></g></g></svg>