<svg height="95.432" viewBox="0 0 63.069 95.432" width="63.069" xmlns="http://www.w3.org/2000/svg"><g fill="#2f8621"><path d="m90.7 339.836 11.432 20.3a2.575 2.575 0 0 1 .385 2.3 2.157 2.157 0 0 1 -2.016.844h-23.325a2.151 2.151 0 0 1 -2.014-.844 2.582 2.582 0 0 1 .385-2.3l11.432-20.3c.532-.946 1.21-1.487 1.86-1.487s1.33.542 1.861 1.487z" transform="translate(-57.306 -338.35)"/><path d="m64.116 391.334 10.205-18.117h24.1l10.2 18.117c.967 1.717 1.2 3.32.643 4.4s-1.94 1.7-3.8 1.7h-38.194c-1.855 0-3.239-.62-3.8-1.7s-.321-2.683.646-4.4z" transform="translate(-54.836 -345.619)"/><path d="m53.558 426 10.364-18.4h40.5l10.368 18.4c.932 1.653 1.169 3.18.648 4.185s-1.847 1.585-3.633 1.585h-55.264c-1.786 0-3.108-.576-3.63-1.585s-.284-2.529.647-4.185z" transform="translate(-52.639 -352.787)"/></g><path d="m81.368 407.6h27.963l10.364 18.4c.932 1.653 1.169 3.18.648 4.185s-1.847 1.585-3.633 1.585h-40.541z" fill="#399d26" transform="translate(-57.545 -352.787)"/><path d="m88.761 373.217h13.909l10.2 18.117c.967 1.717 1.2 3.32.643 4.4s-1.94 1.7-3.8 1.7h-26.159z" fill="#399d26" transform="translate(-59.084 -345.619)"/><path d="m103.8 364.317h-12.942l4.517-21.009 10.058 17.862a2.575 2.575 0 0 1 .385 2.3 2.157 2.157 0 0 1 -2.018.847z" fill="#399d26" transform="translate(-60.607 -339.384)"/><path d="m26.876 83.025h9.317v12.408h-9.317z" fill="#544034"/></svg>